<svg width="24" height="24" viewBox="0 0 24 24" fill="none" xmlns="http://www.w3.org/2000/svg">
<path d="M12 2C12.5523 2 13 2.44772 13 3V12.5858L14.7929 10.7929C15.1834 10.4024 15.8166 10.4024 16.2071 10.7929C16.5976 11.1834 16.5976 11.8166 16.2071 12.2071L12.7071 15.7071C12.3166 16.0976 11.6834 16.0976 11.2929 15.7071L7.79289 12.2071C7.40237 11.8166 7.40237 11.1834 7.79289 10.7929C8.18342 10.4024 8.81658 10.4024 9.20711 10.7929L11 12.5858V3C11 2.44772 11.4477 2 12 2ZM2 10.5C2.55228 10.5 3 10.9477 3 11.5V20C3 20.5523 3.44772 21 4 21H20C20.5523 21 21 20.5523 21 20V11.5C21 10.9477 21.4477 10.5 22 10.5C22.5523 10.5 23 10.9477 23 11.5V20C23 21.6569 21.6569 23 20 23H4C2.34315 23 1 21.6569 1 20V11.5C1 10.9477 1.44772 10.5 2 10.5Z" fill="black"/>
</svg>
